<?xml version="1.0" standalone="no"?>
<svg xmlns:xlink="http://www.w3.org/1999/xlink" id="wave" style="transform:rotate(180deg); transition: 0.3s" viewBox="0 0 1440 100" version="1.1" xmlns="http://www.w3.org/2000/svg"><defs><linearGradient id="sw-gradient-0" x1="0" x2="0" y1="1" y2="0"><stop stop-color="rgba(195.029, 223.006, 204.799, 1)" offset="0%"/><stop stop-color="rgba(195, 223, 205, 1)" offset="100%"/></linearGradient></defs><path style="transform:translate(0, 0px); opacity:1" fill="url(#sw-gradient-0)" d="M0,30L16,31.7C32,33,64,37,96,43.3C128,50,160,60,192,60C224,60,256,50,288,50C320,50,352,60,384,61.7C416,63,448,57,480,55C512,53,544,57,576,48.3C608,40,640,20,672,10C704,0,736,0,768,3.3C800,7,832,13,864,23.3C896,33,928,47,960,43.3C992,40,1024,20,1056,18.3C1088,17,1120,33,1152,45C1184,57,1216,63,1248,60C1280,57,1312,43,1344,33.3C1376,23,1408,17,1440,21.7C1472,27,1504,43,1536,46.7C1568,50,1600,40,1632,31.7C1664,23,1696,17,1728,23.3C1760,30,1792,50,1824,56.7C1856,63,1888,57,1920,48.3C1952,40,1984,30,2016,30C2048,30,2080,40,2112,40C2144,40,2176,30,2208,33.3C2240,37,2272,53,2288,61.7L2304,70L2304,100L2288,100C2272,100,2240,100,2208,100C2176,100,2144,100,2112,100C2080,100,2048,100,2016,100C1984,100,1952,100,1920,100C1888,100,1856,100,1824,100C1792,100,1760,100,1728,100C1696,100,1664,100,1632,100C1600,100,1568,100,1536,100C1504,100,1472,100,1440,100C1408,100,1376,100,1344,100C1312,100,1280,100,1248,100C1216,100,1184,100,1152,100C1120,100,1088,100,1056,100C1024,100,992,100,960,100C928,100,896,100,864,100C832,100,800,100,768,100C736,100,704,100,672,100C640,100,608,100,576,100C544,100,512,100,480,100C448,100,416,100,384,100C352,100,320,100,288,100C256,100,224,100,192,100C160,100,128,100,96,100C64,100,32,100,16,100L0,100Z"/></svg>